<svg width="70" height="70" viewBox="0 0 70 70" fill="none" xmlns="http://www.w3.org/2000/svg">
<circle cx="35" cy="35" r="35" fill="#BEE1E6"/>
<path d="M42.9427 42.967L42.8505 42.9297C42.8228 42.5114 42.7801 42.0949 42.7213 41.6882V41.6879C42.6745 41.3681 42.4746 41.0914 42.1854 40.9468L40.7475 40.2223C40.4689 40.0814 40.1396 40.0814 39.8611 40.2223C39.5855 40.357 39.3909 40.6148 39.3367 40.9164C39.3213 41.0017 39.3019 41.0907 39.2804 41.183V41.1832C39.1873 41.0727 39.101 40.9567 39.0222 40.8357C38.7266 40.3837 38.5663 39.8504 38.4805 39.4275V39.4277C39.1338 38.8639 39.751 38.2603 40.3291 37.6199C40.8669 37.0342 41.2635 36.3286 41.5598 35.5627C44.4168 34.8744 44.5661 31.9768 44.659 30.1805H44.6588C44.6816 29.7283 44.579 29.2784 44.3625 28.8806C44.1462 28.4828 43.8242 28.1524 43.432 27.9257C43.3236 26.8224 43.0008 25.5414 42.4911 24.5619H42.4914C42.6503 24.5194 42.7831 24.4101 42.8555 24.2623C42.9415 24.0889 42.9314 23.8832 42.8283 23.7193C42.0201 22.4165 40.5272 21.2976 38.7768 20.6584C38.8411 20.5087 38.8381 20.339 38.7689 20.1917C38.6997 20.0445 38.5708 19.9339 38.4147 19.888C38.0158 19.7671 37.6109 19.6673 37.2013 19.5891C37.2007 19.4494 37.1555 19.3138 37.0722 19.2017C36.9032 18.9868 36.6537 18.8498 36.3814 18.8226C35.5936 18.7258 34.797 18.7258 34.0092 18.8226C33.7369 18.8501 33.4874 18.9868 33.3177 19.2017C33.2107 19.3449 33.1676 19.5259 33.1989 19.7021C31.6946 20.1419 30.6234 21.0271 30.0998 22.0304C30.0917 22.0481 30.0767 22.062 30.0585 22.0691C28.719 22.4821 27.6059 23.4236 26.9769 24.6762C26.8823 24.8618 26.9042 25.0853 27.0329 25.249C27.1547 25.4067 27.3527 25.4853 27.5494 25.4535C27.2854 26.2484 27.0996 27.067 26.9949 27.898C26.5925 28.1215 26.2609 28.4533 26.0377 28.8557C25.8145 29.2581 25.7086 29.7151 25.7319 30.1747C25.8241 31.9721 25.9733 34.8718 28.835 35.5581C29.1313 36.3218 29.5276 37.0283 30.0656 37.6138C30.6421 38.2542 31.258 38.858 31.9097 39.4216C31.7985 39.9697 31.6087 40.4643 31.3673 40.8342V40.8345C31.288 40.9548 31.2018 41.0708 31.1091 41.1811C31.0871 41.0888 31.0678 40.9996 31.0523 40.9145H31.0521C30.9981 40.6129 30.8033 40.3551 30.528 40.2204C30.2492 40.0793 29.9201 40.0793 29.6413 40.2204L28.2008 40.9468C27.9128 41.0909 27.7131 41.3667 27.6663 41.6854C27.6075 42.0921 27.5648 42.5086 27.5372 42.9269L27.4454 42.9642C24.6963 44.1202 22.5061 46.6816 21.2784 50.1797C21.2101 50.3766 21.2412 50.594 21.3616 50.764C21.482 50.9339 21.6771 51.0354 21.8853 51.0365H48.502C48.7103 51.0352 48.9049 50.9337 49.0252 50.7637C49.1454 50.5938 49.1763 50.3763 49.1083 50.1797C47.8808 46.6816 45.6902 44.1201 42.943 42.9672L42.9427 42.967ZM37.7555 20.8815C37.792 21.0533 37.9188 21.1919 38.0867 21.2431C39.7248 21.7488 41.1517 22.7051 41.9742 23.8368C41.8112 23.8617 41.6705 23.965 41.5979 24.1131C41.5208 24.2685 41.5301 24.4525 41.6223 24.5994C42.1155 25.391 42.4617 26.5705 42.6116 27.6236C42.2454 27.559 41.8457 27.5048 41.4261 27.4543C41.151 26.6092 40.648 25.8169 39.9166 25.0855H39.9164C39.8057 24.975 39.6395 24.9418 39.4949 25.0015C39.3503 25.0612 39.2558 25.2021 39.2553 25.3587C39.2553 25.5393 39.2336 25.7191 39.1907 25.8946C38.7469 25.4775 38.2721 25.0949 37.7703 24.7497C37.6619 24.0473 37.5296 23.4584 37.4106 22.9238C37.1975 21.9722 37.0322 21.2348 37.1014 20.3567C37.3352 20.4033 37.5752 20.4586 37.8227 20.5252C37.7547 20.6306 37.7304 20.7586 37.7556 20.8815L37.7555 20.8815ZM37.9841 27.1755C37.9704 26.6769 37.9414 26.2218 37.9015 25.8021V25.8023C38.309 26.1235 38.6936 26.4726 39.0526 26.8471C39.134 26.9319 39.2498 26.9751 39.3669 26.9647C39.4841 26.9541 39.5901 26.8909 39.6549 26.7927C39.7624 26.6195 39.8454 26.4322 39.9017 26.2362C40.1705 26.5803 40.3926 26.9584 40.5621 27.3609C39.7145 27.279 38.8209 27.2183 37.9841 27.1757L37.9841 27.1755ZM34.105 19.5899C34.8293 19.5007 35.5622 19.5007 36.2867 19.5899C36.3321 19.5952 36.3759 19.6098 36.4158 19.6324C36.1723 20.9445 36.3854 21.8921 36.6533 23.0924C36.8786 24.0996 37.1523 25.3249 37.2072 27.1399C36.4202 27.109 35.7171 27.0947 35.1927 27.0947C34.6684 27.0947 33.966 27.109 33.1829 27.1399C33.2371 25.3249 33.5108 24.0996 33.7368 23.0924C34.0047 21.8947 34.2178 20.9442 33.9743 19.6324H33.9745C34.0146 19.6098 34.0591 19.5952 34.105 19.5899H34.105ZM32.4069 27.1749C31.5676 27.2176 30.6715 27.2789 29.8179 27.3614C29.9643 26.9415 30.1762 26.5472 30.446 26.1935C30.7243 25.8402 31.1878 25.4044 31.818 25.3366C31.9324 25.3242 32.0352 25.2614 32.0989 25.1655C32.2474 24.9393 32.4335 24.7403 32.6491 24.5768C32.5091 25.4362 32.4282 26.3044 32.407 27.1749L32.4069 27.1749ZM30.2795 22.8089C30.4974 22.7427 30.6791 22.591 30.7836 22.3887C31.1161 21.7546 31.9375 20.9205 33.2977 20.4783C33.3429 21.3034 33.184 22.0163 32.9813 22.9235C32.9336 23.1352 32.8845 23.3561 32.8347 23.5899L32.8349 23.5897C32.3232 23.7979 31.8798 24.1452 31.5551 24.5923C30.9134 24.7124 30.3226 25.0973 29.837 25.7143H29.8372C29.4415 26.2341 29.1477 26.8237 28.9714 27.4525C28.5627 27.5016 28.1721 27.5558 27.8138 27.6165C27.9275 26.8933 28.1509 25.9694 28.4595 25.2229L28.4593 25.2231C28.5284 25.062 28.5015 24.8756 28.3896 24.7407C28.2766 24.6058 28.0988 24.5443 27.9266 24.58C28.4819 23.7347 29.3136 23.1086 30.2795 22.8088L30.2795 22.8089ZM27.906 28.3866C30.1013 28.0103 33.5419 27.8701 35.1935 27.8701C36.845 27.8701 40.2837 28.0108 42.4803 28.3866L42.4801 28.3869C42.9002 28.4583 43.2775 28.6864 43.5364 29.0247C37.9861 28.5388 32.4037 28.5375 26.8535 29.0201C27.1123 28.6843 27.4879 28.4581 27.906 28.3869L27.906 28.3866ZM26.5042 30.1345C26.4992 30.0323 26.5033 29.93 26.5165 29.8285C32.2891 29.3 38.0979 29.3 43.8706 29.8285C43.8837 29.929 43.8876 30.0307 43.8821 30.132C43.758 32.5513 43.4114 34.7374 40.5756 34.9176C39.4662 34.991 38.3525 34.8734 37.2828 34.5701C35.9172 34.1811 34.4702 34.1811 33.1047 34.5701C32.0352 34.8734 30.9215 34.991 29.8119 34.9176C26.9749 34.7401 26.6288 32.5531 26.5043 30.1345H26.5042ZM30.6365 37.0896C30.2638 36.6736 29.9589 36.2016 29.7326 35.6911H29.7623C29.9929 35.7054 30.2233 35.713 30.4518 35.713C31.4207 35.7144 32.3853 35.5806 33.3174 35.3152C34.5439 34.9654 35.844 34.9654 37.0705 35.3152C38.2253 35.6429 39.4276 35.7699 40.6255 35.6911H40.6597C40.4335 36.2016 40.1284 36.6737 39.7558 37.0896C38.6911 38.2486 38.03 38.8213 36.9518 39.6683C36.4509 40.0622 35.8322 40.2764 35.1951 40.2764C34.558 40.2764 33.9395 40.0622 33.4387 39.6683C32.3611 38.8211 31.7 38.2486 30.6352 37.0896L30.6365 37.0896ZM32.0163 41.2566C32.2677 40.8593 32.4561 40.4254 32.5748 39.9704C32.6989 40.0698 32.8273 40.1712 32.9622 40.2778C33.5991 40.7793 34.3861 41.0519 35.1967 41.0519C36.0074 41.0519 36.7944 40.7793 37.4313 40.2778C37.5655 40.1726 37.6896 40.0719 37.8148 39.9736C37.9342 40.4274 38.1226 40.8603 38.3733 41.2566C38.558 41.5416 38.777 41.8029 39.0254 42.0347C38.7083 42.9213 38.317 43.7796 37.8556 44.6005C36.0768 45.6368 34.3181 45.6335 32.5308 44.5954C32.0705 43.7761 31.6799 42.9194 31.3636 42.0347C31.6119 41.8031 31.8305 41.5416 32.015 41.2566L32.0163 41.2566ZM31.7168 50.2613H22.0716C23.1983 47.1672 25.1152 44.8855 27.5016 43.7879C27.484 44.6245 27.5369 45.4613 27.6591 46.2891C27.8327 47.4043 28.2208 48.7646 29.086 48.9112C29.1309 48.9186 29.1761 48.9223 29.2216 48.9223C29.7976 48.9223 30.7945 48.4115 32.3415 47.4907C32.2034 48.088 31.7726 50.0171 31.7152 50.2613L31.7168 50.2613ZM30.49 47.6528C29.4964 48.1693 29.2421 48.1518 29.2167 48.1481C29.0173 48.1145 28.6421 47.5599 28.4258 46.171C28.2243 44.8739 28.2271 43.2391 28.4341 41.7986C28.4452 41.7303 28.4888 41.6718 28.551 41.6418L29.9909 40.9147C30.0518 40.8841 30.1237 40.8841 30.1846 40.9147C30.2404 40.9415 30.2798 40.9934 30.2911 41.0543C30.583 42.6465 31.6972 44.8791 32.5979 46.1725V46.1722C32.6249 46.2098 32.639 46.2552 32.6374 46.3014C32.6291 46.3304 32.6205 46.3613 32.6115 46.3943V46.3945C32.594 46.4275 32.568 46.4549 32.5361 46.4745L32.3535 46.5843C31.8324 46.8954 31.1208 47.3247 30.4894 47.6529L30.49 47.6528ZM32.5103 50.2613C32.5536 50.0676 33.1843 47.2558 33.3457 46.6456C33.3632 46.5981 33.3771 46.5492 33.387 46.4997C33.4368 46.2626 33.3978 46.0154 33.2779 45.8049C34.509 46.2723 35.8684 46.2741 37.1009 45.8102C36.9838 46.0198 36.9469 46.2649 36.9969 46.4996C37.008 46.5492 37.023 46.5977 37.0414 46.6449C37.2028 47.2564 37.8337 50.0669 37.8768 50.2606L32.5103 50.2613ZM37.8531 46.4727V46.4724C37.8211 46.4533 37.7948 46.4259 37.7768 46.3931C37.7678 46.3594 37.7593 46.3285 37.751 46.2995C37.7503 46.2534 37.7639 46.2082 37.7904 46.1704C38.6911 44.879 39.8062 42.6444 40.0979 41.0521C40.1085 40.991 40.1484 40.9391 40.2045 40.9129C40.2344 40.8979 40.2674 40.89 40.3006 40.8903C40.3343 40.89 40.3673 40.8981 40.397 40.9133L41.8375 41.6404H41.8373C41.8995 41.671 41.9429 41.7296 41.9542 41.7979C42.1608 43.2383 42.164 44.873 41.962 46.1703C41.7464 47.5592 41.3712 48.1138 41.1718 48.1474C41.1459 48.1513 40.8923 48.1686 39.8984 47.6521C39.2671 47.3242 38.5548 46.8948 38.0351 46.5817L37.8531 46.4727ZM38.6717 50.2613C38.6168 50.0178 38.1842 48.0887 38.0454 47.4914C39.595 48.4122 40.59 48.9229 41.1658 48.9229V48.9227C41.211 48.9229 41.2562 48.9193 41.3009 48.9119C42.168 48.7652 42.5553 47.4036 42.7271 46.2898C42.85 45.4618 42.9028 44.6247 42.8846 43.7879C45.2736 44.8855 47.1886 47.1665 48.3146 50.2607L38.6717 50.2613Z" fill="#006D77"/>
</svg>
